<?xml version="1.0" standalone="no"?>
<!DOCTYPE svg PUBLIC "-//W3C//DTD SVG 20010904//EN"
 "http://www.w3.org/TR/2001/REC-SVG-20010904/DTD/svg10.dtd">
<svg version="1.0" xmlns="http://www.w3.org/2000/svg"
 width="432.000000pt" height="432.000000pt" viewBox="0 0 432.000000 432.000000"
 preserveAspectRatio="xMidYMid meet">
<metadata>
Created by potrace 1.14, written by Peter Selinger 2001-2017
</metadata>
<g transform="translate(0.000000,432.000000) scale(0.100000,-0.100000)"
fill="#000000" stroke="none">
<path d="M2117 4004 c-1 -1 -29 -5 -62 -8 -156 -17 -257 -40 -412 -91 -101
-34 -332 -142 -364 -171 -8 -8 -19 -14 -22 -14 -4 0 -53 -33 -109 -72 -105
-76 -287 -246 -354 -333 -22 -27 -44 -55 -50 -62 -6 -6 -26 -35 -45 -65 -18
-29 -39 -58 -45 -65 -11 -12 -119 -225 -147 -293 -16 -36 -67 -192 -71 -213
-1 -7 -7 -28 -14 -47 -39 -120 -63 -493 -41 -650 5 -36 11 -78 13 -95 14 -108
81 -332 127 -427 15 -32 25 -58 23 -58 -3 0 6 -19 19 -42 13 -24 39 -70 57
-103 19 -33 37 -62 40 -65 4 -3 17 -24 30 -48 13 -23 26 -42 29 -42 3 0 7 21
8 47 6 119 57 237 196 456 45 71 87 136 92 145 6 9 33 55 61 102 174 289 226
423 219 568 -2 42 -11 97 -20 122 -33 93 -113 214 -206 315 -15 17 -48 52 -73
79 -25 27 -50 64 -55 82 -32 116 76 233 193 208 20 -4 55 -31 101 -79 191
-197 305 -377 357 -563 16 -59 21 -104 21 -192 -1 -63 -3 -126 -6 -140 -3 -14
-8 -34 -10 -45 -18 -78 -57 -181 -104 -273 -31 -59 -61 -117 -67 -129 -6 -13
-14 -23 -18 -23 -5 0 -8 -5 -8 -11 0 -10 -176 -286 -190 -299 -9 -7 -70 -109
-70 -116 0 -3 -7 -12 -15 -21 -8 -8 -13 -19 -10 -24 4 -5 2 -9 -3 -9 -16 0
-63 -160 -64 -216 -2 -98 89 -226 209 -290 21 -12 54 -30 73 -41 71 -40 305
-123 349 -123 8 0 7 31 -6 235 -4 61 -7 227 -7 370 -1 279 7 448 29 640 3 28
8 82 10 120 5 66 15 148 21 170 2 6 10 37 19 70 8 33 17 67 20 75 2 8 4 15 5
15 1 0 3 9 5 20 22 111 148 435 178 456 5 3 8 10 8 15 -1 16 126 178 183 232
30 29 58 63 61 75 6 22 13 38 53 127 11 25 35 79 52 120 59 137 123 270 131
270 5 0 45 -46 89 -102 44 -57 89 -114 100 -126 11 -13 20 -27 20 -32 0 -5 4
-10 8 -12 5 -1 27 -28 50 -59 l42 -56 79 -6 c73 -6 193 -41 223 -66 113 -94
187 -182 298 -356 83 -130 116 -171 160 -197 46 -28 99 -85 107 -115 16 -65
-86 -318 -167 -415 -96 -115 -192 -185 -299 -219 -84 -26 -90 -27 -186 -33
-90 -5 -128 -18 -142 -50 -14 -31 -5 -93 23 -161 14 -33 26 -64 28 -70 5 -21
111 -231 130 -260 12 -16 20 -32 19 -35 -1 -3 21 -51 47 -106 92 -193 151
-353 183 -497 14 -59 20 -58 136 31 463 356 736 908 733 1487 0 94 -8 222 -16
265 -3 14 -8 42 -11 62 -19 135 -84 336 -161 494 -146 302 -347 535 -640 742
-122 86 -387 209 -534 248 -187 48 -312 65 -513 68 -71 1 -129 1 -130 0z
m-407 -578 c0 -2 -8 -10 -17 -17 -16 -13 -17 -12 -4 4 13 16 21 21 21 13z
m-40 -39 c0 -2 -17 -19 -37 -38 l-38 -34 34 38 c33 34 41 42 41 34z m-126
-129 c-27 -29 -74 -75 -104 -103 -57 -51 -42 -34 75 88 39 40 72 71 74 70 2
-2 -18 -26 -45 -55z m-554 -551 c0 -2 -15 -16 -32 -33 l-33 -29 29 33 c28 30
36 37 36 29z m-80 -81 c0 -3 -4 -8 -10 -11 -5 -3 -10 -1 -10 4 0 6 5 11 10 11
6 0 10 -2 10 -4z"/>
</g>
</svg>
